# xmcd CD database file
#
# Track frame offsets:
#	150
#	24588
#	44436
#	66531
#	90172
#	113462
#	145804
#	170284
#	200706
#	230207
#	251592
#	275130
#	299121
#
# Disc length: 4388 seconds
#
# Revision: 0
# Processed by: cddbd v1.5.2PL0 Copyright (c) Steve Scherf et al.
# Submitted via: CDex 1.70beta2
#
DISCID=c911220d
DTITLE=Michael Köhlmeier - Märchenwelt - Der Tod (2)
DYEAR=2012
DGENRE=Hörbuch
TTITLE0=Der Kamerad (aus Norwegen)
TTITLE1=Der Kamerad (aus Norwegen)
TTITLE2=Der Kamerad (aus Norwegen)
TTITLE3=Der Kamerad (aus Norwegen)
TTITLE4=Der Kamerad (aus Norwegen)
TTITLE5=Der Kamerad (aus Norwegen)
TTITLE6=Seághan mit den beiden Schafen (aus Irland)
TTITLE7=Seághan mit den beiden Schafen (aus Irland)
TTITLE8=Seághan mit den beiden Schafen (aus Irland)
TTITLE9=Der Tod der Elster (aus Tibet)
TTITLE10=Der Tod der Elster (aus Tibet)
TTITLE11=Der Tod der Elster (aus Tibet)
TTITLE12=Der Tod der Elster (aus Tibet)
EXTD=YEAR: 2012
EXTT0=
EXTT1=
EXTT2=
EXTT3=
EXTT4=
EXTT5=
EXTT6=
EXTT7=
EXTT8=
EXTT9=
EXTT10=
EXTT11=
EXTT12=
PLAYORDER=
